# xmcd
#
# Track frame offsets:
#	183
#	16565
#	34893
#	53175
#	75125
#	91250
#	109843
#	123855
#	137515
#	151933
#	171865
#	186845
#	201618
#
# Disc length: 2941 seconds
# Revision: 0
# Processed by: cddbd v1.5.2PL0 Copyright (c) Steve Scherf et al.
# Submitted via: dBpowerAMP V12.0
#
DISCID=9b0b7b0d
DTITLE=Cheon Won Seok (전원석) - 전원석 골든
DYEAR=1994
DGENRE=Ballad
TTITLE0=슬퍼지는 내모습
TTITLE1=가는 곳 어디이길래
TTITLE2=떠나지마
TTITLE3=아마도 그건
TTITLE4=아무 생각하지 않을래요
TTITLE5=눈물처럼
TTITLE6=작은 햇살
TTITLE7=풀밭에 누워
TTITLE8=그대 생각에 잠못들 때도 있어요
TTITLE9=비는 투명한 미소처럼
TTITLE10=추운 기억 속에
TTITLE11=이제 철 좀 들어봐
TTITLE12=안돼
EXTD=
EXTT0=
EXTT1=
EXTT2=
EXTT3=
EXTT4=
EXTT5=
EXTT6=
EXTT7=
EXTT8=
EXTT9=
EXTT10=
EXTT11=
EXTT12=
PLAYORDER=
